<mxfile host="app.diagrams.net" modified="2023-02-21T03:28:43.262Z" agent="5.0 (Windows NT 10.0; Win64; x64) AppleWebKit/537.36 (KHTML, like Gecko) Chrome/110.0.0.0 Safari/537.36" etag="bxoFjeDEpGGIVtOR41ty" version="20.8.21" type="github">
  <diagram name="Page-1" id="5348f1db-0dfa-24cf-5d06-2057accb5106">
    <mxGraphModel dx="1050" dy="549" grid="1" gridSize="10" guides="1" tooltips="1" connect="1" arrows="1" fold="1" page="1" pageScale="1.5" pageWidth="826" pageHeight="1169" background="none" math="0" shadow="0">
      <root>
        <mxCell id="0" style=";html=1;" />
        <mxCell id="1" style=";html=1;" parent="0" />
        <mxCell id="55dd390204d0f602-3" value="" style="whiteSpace=wrap;html=1;rounded=0;shadow=0;dashed=0;strokeColor=none;strokeWidth=4;fillColor=#0A1230;gradientColor=none;fontFamily=Helvetica;fontSize=100;fontColor=#FFFFFF;align=center;" parent="1" vertex="1">
          <mxGeometry x="200" y="280" width="880" height="1280" as="geometry" />
        </mxCell>
        <mxCell id="55dd390204d0f602-1" value="PERENCANAAN&lt;br style=&quot;font-size: 73px;&quot;&gt;HIDUP" style="whiteSpace=wrap;html=1;rounded=0;shadow=0;dashed=0;strokeColor=none;strokeWidth=4;fillColor=#1E2436;gradientColor=none;fontFamily=Times New Roman;fontSize=73;fontColor=#FFFFFF;align=center;fontStyle=0;labelBackgroundColor=none;labelBorderColor=none;" parent="1" vertex="1">
          <mxGeometry x="200" y="80" width="880" height="200" as="geometry" />
        </mxCell>
        <mxCell id="55dd390204d0f602-5" value="" style="endArrow=none;html=1;dashed=1;dashPattern=1 1;labelBackgroundColor=none;strokeColor=#F49731;fontFamily=Helvetica;fontSize=100;fontColor=#FFFFFF;strokeWidth=16;" parent="1" edge="1">
          <mxGeometry width="50" height="50" relative="1" as="geometry">
            <mxPoint x="209.99823529411768" y="480" as="sourcePoint" />
            <mxPoint x="969.41" y="480" as="targetPoint" />
          </mxGeometry>
        </mxCell>
        <mxCell id="55dd390204d0f602-6" value="STAGE 1" style="whiteSpace=wrap;html=1;rounded=0;shadow=0;dashed=0;strokeColor=none;strokeWidth=4;fillColor=#F49731;gradientColor=none;fontFamily=Helvetica;fontSize=30;fontColor=#FFFFFF;align=center;fontStyle=1" parent="1" vertex="1">
          <mxGeometry x="210" y="290" width="140" height="60" as="geometry" />
        </mxCell>
        <mxCell id="55dd390204d0f602-8" value="Lorem ipsum dolor sit amet, consectetur adipisicing elit, sed do eiusmod tempor incididunt ut labore et dolore magna aliqua. Ut enim ad minim veniam, quis nostrud exercitation ullamco laboris nisi ut aliquip ex ea commodo consequat. Duis aute irure dolor in reprehenderit in voluptate velit esse cillum dolore eu fugiat nulla pariatur. Excepteur sint occaecat cupidatat non proident, sunt in culpa qui officia deserunt mollit anim id est laborum." style="text;spacingTop=-5;fillColor=#ffffff;whiteSpace=wrap;html=1;align=left;fontSize=14;fontFamily=Helvetica;fillColor=none;strokeColor=none;rounded=0;shadow=0;dashed=0;fontColor=#FEF15B;" parent="1" vertex="1">
          <mxGeometry x="210" y="360" width="535" height="130" as="geometry" />
        </mxCell>
        <mxCell id="55dd390204d0f602-11" value="" style="endArrow=none;html=1;dashed=1;dashPattern=1 1;labelBackgroundColor=none;strokeColor=#F49731;fontFamily=Helvetica;fontSize=100;fontColor=#FFFFFF;strokeWidth=16;" parent="1" edge="1">
          <mxGeometry width="50" height="50" relative="1" as="geometry">
            <mxPoint x="209.99823529411756" y="690" as="sourcePoint" />
            <mxPoint x="969.41" y="690" as="targetPoint" />
          </mxGeometry>
        </mxCell>
        <mxCell id="55dd390204d0f602-12" value="STAGE 2" style="whiteSpace=wrap;html=1;rounded=0;shadow=0;dashed=0;strokeColor=none;strokeWidth=4;fillColor=#F49731;gradientColor=none;fontFamily=Helvetica;fontSize=30;fontColor=#FFFFFF;align=center;fontStyle=1" parent="1" vertex="1">
          <mxGeometry x="210" y="500" width="140" height="60" as="geometry" />
        </mxCell>
        <mxCell id="55dd390204d0f602-13" value="Lorem ipsum dolor sit amet, consectetur adipisicing elit, sed do eiusmod tempor incididunt ut labore et dolore magna aliqua. Ut enim ad minim veniam, quis nostrud exercitation ullamco laboris nisi ut aliquip ex ea commodo consequat. Duis aute irure dolor in reprehenderit in voluptate velit esse cillum dolore eu fugiat nulla pariatur. Excepteur sint occaecat cupidatat non proident, sunt in culpa qui officia deserunt mollit anim id est laborum." style="text;spacingTop=-5;fillColor=#ffffff;whiteSpace=wrap;html=1;align=left;fontSize=14;fontFamily=Helvetica;fillColor=none;strokeColor=none;rounded=0;shadow=0;dashed=0;fontColor=#FEF15B;" parent="1" vertex="1">
          <mxGeometry x="210" y="570" width="535" height="130" as="geometry" />
        </mxCell>
        <mxCell id="55dd390204d0f602-16" value="" style="endArrow=none;html=1;dashed=1;dashPattern=1 1;labelBackgroundColor=none;strokeColor=#F49731;fontFamily=Helvetica;fontSize=100;fontColor=#FFFFFF;strokeWidth=16;" parent="1" edge="1">
          <mxGeometry width="50" height="50" relative="1" as="geometry">
            <mxPoint x="209.99823529411756" y="900.0000000000002" as="sourcePoint" />
            <mxPoint x="969.41" y="900.0000000000002" as="targetPoint" />
          </mxGeometry>
        </mxCell>
        <mxCell id="55dd390204d0f602-17" value="STAGE 3" style="whiteSpace=wrap;html=1;rounded=0;shadow=0;dashed=0;strokeColor=none;strokeWidth=4;fillColor=#F49731;gradientColor=none;fontFamily=Helvetica;fontSize=30;fontColor=#FFFFFF;align=center;fontStyle=1" parent="1" vertex="1">
          <mxGeometry x="210" y="710" width="140" height="60" as="geometry" />
        </mxCell>
        <mxCell id="55dd390204d0f602-18" value="Lorem ipsum dolor sit amet, consectetur adipisicing elit, sed do eiusmod tempor incididunt ut labore et dolore magna aliqua. Ut enim ad minim veniam, quis nostrud exercitation ullamco laboris nisi ut aliquip ex ea commodo consequat. Duis aute irure dolor in reprehenderit in voluptate velit esse cillum dolore eu fugiat nulla pariatur. Excepteur sint occaecat cupidatat non proident, sunt in culpa qui officia deserunt mollit anim id est laborum." style="text;spacingTop=-5;fillColor=#ffffff;whiteSpace=wrap;html=1;align=left;fontSize=14;fontFamily=Helvetica;fillColor=none;strokeColor=none;rounded=0;shadow=0;dashed=0;fontColor=#FEF15B;" parent="1" vertex="1">
          <mxGeometry x="210" y="780" width="535" height="130" as="geometry" />
        </mxCell>
        <mxCell id="55dd390204d0f602-22" value="STAGE 4" style="whiteSpace=wrap;html=1;rounded=0;shadow=0;dashed=0;strokeColor=none;strokeWidth=4;fillColor=#F49731;gradientColor=none;fontFamily=Helvetica;fontSize=30;fontColor=#FFFFFF;align=center;fontStyle=1" parent="1" vertex="1">
          <mxGeometry x="210" y="920" width="150" height="60" as="geometry" />
        </mxCell>
        <mxCell id="55dd390204d0f602-23" value="Lorem ipsum dolor sit amet, consectetur adipisicing elit, sed do eiusmod tempor incididunt ut labore et dolore magna aliqua. Ut enim ad minim veniam, quis nostrud exercitation ullamco laboris nisi ut aliquip ex ea commodo consequat. Duis aute irure dolor in reprehenderit in voluptate velit esse cillum dolore eu fugiat nulla pariatur. Excepteur sint occaecat cupidatat non proident, sunt in culpa qui officia deserunt mollit anim id est laborum." style="text;spacingTop=-5;fillColor=#ffffff;whiteSpace=wrap;html=1;align=left;fontSize=14;fontFamily=Helvetica;fillColor=none;strokeColor=none;rounded=0;shadow=0;dashed=0;fontColor=#FEF15B;" parent="1" vertex="1">
          <mxGeometry x="210" y="990" width="535" height="130" as="geometry" />
        </mxCell>
        <mxCell id="D8ugw2P8kCvhEIF2nTpq-2" value="" style="endArrow=none;html=1;dashed=1;dashPattern=1 1;labelBackgroundColor=none;strokeColor=#F49731;fontFamily=Helvetica;fontSize=100;fontColor=#FFFFFF;strokeWidth=16;" edge="1" parent="1">
          <mxGeometry width="50" height="50" relative="1" as="geometry">
            <mxPoint x="209.99823529411756" y="1110.0000000000002" as="sourcePoint" />
            <mxPoint x="969.41" y="1110.0000000000002" as="targetPoint" />
          </mxGeometry>
        </mxCell>
      </root>
    </mxGraphModel>
  </diagram>
</mxfile>
